<svg version="1.1" id="Layer_1" xmlns="http://www.w3.org/2000/svg" xmlns:xlink="http://www.w3.org/1999/xlink" x="0px" y="0px"
	 width="100%" viewBox="0 0 376 376" enable-background="new 0 0 376 376" xml:space="preserve">
<path fill="#000000" opacity="1.000000" stroke="none" 
	d="
M171.000000,377.000000 
	C114.000008,377.000000 57.500019,377.000000 1.000023,377.000000 
	C1.000015,251.666702 1.000015,126.333397 1.000008,1.000073 
	C126.333282,1.000049 251.666565,1.000049 376.999878,1.000024 
	C376.999939,126.333252 376.999939,251.666504 376.999969,376.999878 
	C308.500000,377.000000 240.000000,377.000000 171.000000,377.000000 
M288.698395,141.482727 
	C289.785370,141.387589 290.872375,141.292450 292.723206,141.499084 
	C294.031616,141.467499 295.661713,141.918320 296.582001,141.304672 
	C298.543915,139.996445 301.328827,138.316940 301.610840,136.460587 
	C302.066040,133.464203 299.582886,131.466553 296.263641,131.495163 
	C293.825989,131.516159 291.390015,131.738663 288.117126,131.571503 
	C285.760529,131.645996 283.403900,131.720490 280.168243,131.485855 
	C276.764282,131.585907 273.360352,131.685974 269.063202,131.518723 
	C253.951569,131.616028 238.824402,131.324356 223.732910,131.926346 
	C210.205902,132.465927 198.450195,143.489853 196.199982,156.572708 
	C193.755356,170.785828 200.380432,183.955627 213.455750,190.527573 
	C219.259079,191.536163 225.034744,192.783295 230.876480,193.460663 
	C234.188507,193.844681 237.574081,192.685059 237.650497,188.641571 
	C237.732025,184.328918 234.477951,183.254822 230.764374,183.452454 
	C223.364822,183.846222 216.709671,182.072571 210.924728,176.278915 
	C205.897324,170.547592 204.721375,163.887955 206.638428,156.718079 
	C209.236679,147.000488 216.929230,141.733475 228.529526,141.536591 
	C240.002487,141.341843 251.477478,141.265656 263.781250,141.452545 
	C265.538055,141.369705 267.294891,141.286865 269.938354,141.467285 
	C275.282928,141.432953 280.627472,141.398605 286.274139,141.745285 
	C286.862732,141.626495 287.451324,141.507706 288.698395,141.482727 
M288.057281,226.315399 
	C283.373932,233.098343 276.757141,235.536514 268.712769,235.484497 
	C247.402023,235.346664 226.089752,235.427048 204.778152,235.457458 
	C202.961487,235.460052 200.809357,235.185455 199.417999,236.032852 
	C197.853424,236.985794 196.172287,239.006241 196.048157,240.674408 
	C195.945404,242.055267 197.788239,243.949036 199.229874,244.955429 
	C200.302979,245.704544 202.112732,245.538651 203.594727,245.540710 
	C225.405823,245.571182 247.217010,245.589142 269.028076,245.547211 
	C277.400726,245.531113 285.020386,243.534592 291.484833,237.669434 
	C301.530243,228.555328 304.917908,212.711426 298.875702,201.216125 
	C290.463104,185.211105 277.123718,182.407120 263.987335,183.832031 
	C262.470886,183.996536 260.370117,186.802185 260.175476,188.563965 
	C260.021973,189.953568 262.092499,192.302872 263.703339,192.992554 
	C265.713715,193.853317 268.266327,193.440872 270.583923,193.592056 
	C287.907654,194.722046 296.660156,210.391434 288.057281,226.315399 
M75.255295,165.190552 
	C78.029594,183.962433 93.055069,195.700821 111.523331,193.509720 
	C114.585205,193.146454 117.164963,192.091949 117.062607,188.400284 
	C116.963600,184.829285 114.612221,183.593109 111.396759,183.457169 
	C108.902710,183.351730 106.396629,183.351334 103.917969,183.092743 
	C93.266373,181.981445 85.255653,173.200226 85.176025,162.645950 
	C85.093582,151.718750 92.945053,142.721054 104.061150,141.975189 
	C113.187515,141.362823 122.375053,141.607925 131.535843,141.575378 
	C145.868256,141.524460 160.201111,141.594025 174.533463,141.533813 
	C177.908768,141.519638 181.147293,140.733994 181.122665,136.471634 
	C181.102890,133.047287 178.812668,131.460831 175.501770,131.467590 
	C151.839905,131.515930 128.158417,131.024384 104.522636,131.843399 
	C86.506157,132.467682 74.981026,146.057526 75.255295,165.190552 
M179.632782,204.031494 
	C172.688721,188.946014 161.219360,182.161179 145.016357,183.419861 
	C141.722641,183.675751 139.382843,185.066818 139.300217,188.415131 
	C139.214859,191.873413 141.755783,193.266769 144.913727,193.508850 
	C147.731613,193.724869 150.578506,193.653839 153.378860,193.990265 
	C162.820160,195.124527 170.417953,203.263062 171.016830,212.725113 
	C171.856903,225.997803 163.024567,235.307663 149.098663,235.398026 
	C127.614304,235.537415 106.128372,235.430817 84.643120,235.447113 
	C82.984482,235.448364 80.965614,235.031311 79.751465,235.806656 
	C77.909485,236.982925 75.661308,238.913864 75.430687,240.755264 
	C75.264786,242.079895 77.937126,244.031036 79.675636,245.214767 
	C80.619553,245.857483 82.257866,245.551559 83.583046,245.552475 
	C104.901756,245.567307 126.220734,245.616287 147.538925,245.510483 
	C151.164490,245.492493 154.923935,245.285568 158.387253,244.323029 
	C175.801071,239.483292 184.411758,223.439590 179.632782,204.031494 
z"/>
<path fill="#F1F1F1" opacity="1.000000" stroke="none" 
	d="
M288.294128,226.016785 
	C296.660156,210.391434 287.907654,194.722046 270.583923,193.592056 
	C268.266327,193.440872 265.713715,193.853317 263.703339,192.992554 
	C262.092499,192.302872 260.021973,189.953568 260.175476,188.563965 
	C260.370117,186.802185 262.470886,183.996536 263.987335,183.832031 
	C277.123718,182.407120 290.463104,185.211105 298.875702,201.216125 
	C304.917908,212.711426 301.530243,228.555328 291.484833,237.669434 
	C285.020386,243.534592 277.400726,245.531113 269.028076,245.547211 
	C247.217010,245.589142 225.405823,245.571182 203.594727,245.540710 
	C202.112732,245.538651 200.302979,245.704544 199.229874,244.955429 
	C197.788239,243.949036 195.945404,242.055267 196.048157,240.674408 
	C196.172287,239.006241 197.853424,236.985794 199.417999,236.032852 
	C200.809357,235.185455 202.961487,235.460052 204.778152,235.457458 
	C226.089752,235.427048 247.402023,235.346664 268.712769,235.484497 
	C276.757141,235.536514 283.373932,233.098343 288.294128,226.016785 
z"/>
<path fill="#F1F1F1" opacity="1.000000" stroke="none" 
	d="
M75.212051,164.742920 
	C74.981026,146.057526 86.506157,132.467682 104.522636,131.843399 
	C128.158417,131.024384 151.839905,131.515930 175.501770,131.467590 
	C178.812668,131.460831 181.102890,133.047287 181.122665,136.471634 
	C181.147293,140.733994 177.908768,141.519638 174.533463,141.533813 
	C160.201111,141.594025 145.868256,141.524460 131.535843,141.575378 
	C122.375053,141.607925 113.187515,141.362823 104.061150,141.975189 
	C92.945053,142.721054 85.093582,151.718750 85.176025,162.645950 
	C85.255653,173.200226 93.266373,181.981445 103.917969,183.092743 
	C106.396629,183.351334 108.902710,183.351730 111.396759,183.457169 
	C114.612221,183.593109 116.963600,184.829285 117.062607,188.400284 
	C117.164963,192.091949 114.585205,193.146454 111.523331,193.509720 
	C93.055069,195.700821 78.029594,183.962433 75.212051,164.742920 
z"/>
<path fill="#F0F0F0" opacity="1.000000" stroke="none" 
	d="
M179.752594,204.409775 
	C184.411758,223.439590 175.801071,239.483292 158.387253,244.323029 
	C154.923935,245.285568 151.164490,245.492493 147.538925,245.510483 
	C126.220734,245.616287 104.901756,245.567307 83.583046,245.552475 
	C82.257866,245.551559 80.619553,245.857483 79.675636,245.214767 
	C77.937126,244.031036 75.264786,242.079895 75.430687,240.755264 
	C75.661308,238.913864 77.909485,236.982925 79.751465,235.806656 
	C80.965614,235.031311 82.984482,235.448364 84.643120,235.447113 
	C106.128372,235.430817 127.614304,235.537415 149.098663,235.398026 
	C163.024567,235.307663 171.856903,225.997803 171.016830,212.725113 
	C170.417953,203.263062 162.820160,195.124527 153.378860,193.990265 
	C150.578506,193.653839 147.731613,193.724869 144.913727,193.508850 
	C141.755783,193.266769 139.214859,191.873413 139.300217,188.415131 
	C139.382843,185.066818 141.722641,183.675751 145.016357,183.419861 
	C161.219360,182.161179 172.688721,188.946014 179.752594,204.409775 
z"/>
<path fill="#FBFBFB" opacity="1.000000" stroke="none" 
	d="
M212.998459,189.966064 
	C200.380432,183.955627 193.755356,170.785828 196.199982,156.572708 
	C198.450195,143.489853 210.205902,132.465927 223.732910,131.926346 
	C238.824402,131.324356 253.951569,131.616028 269.500671,131.967438 
	C268.859589,133.329712 267.579498,134.090805 266.747589,135.190857 
	C265.333618,137.060669 264.201904,139.143906 262.951569,141.137451 
	C251.477478,141.265656 240.002487,141.341843 228.529526,141.536591 
	C216.929230,141.733475 209.236679,147.000488 206.638428,156.718079 
	C204.721375,163.887955 205.897324,170.547592 210.643478,176.623932 
	C205.848206,176.876801 207.032272,179.220871 208.369675,181.629944 
	C209.912354,184.408798 211.455505,187.187363 212.998459,189.966064 
z"/>
<path fill="#F1F1F1" opacity="1.000000" stroke="none" 
	d="
M213.227112,190.246826 
	C211.455505,187.187363 209.912354,184.408798 208.369675,181.629944 
	C207.032272,179.220871 205.848206,176.876801 210.757446,176.958527 
	C216.709671,182.072571 223.364822,183.846222 230.764374,183.452454 
	C234.477951,183.254822 237.732025,184.328918 237.650497,188.641571 
	C237.574081,192.685059 234.188507,193.844681 230.876480,193.460663 
	C225.034744,192.783295 219.259079,191.536163 213.227112,190.246826 
z"/>
<path fill="#FFFFFF" opacity="1.000000" stroke="none" 
	d="
M285.972046,141.364273 
	C280.627472,141.398605 275.282928,141.432953 269.497681,141.002151 
	C271.149200,136.360214 274.465607,136.559174 278.264801,137.738678 
	C279.381744,138.085449 280.776917,137.535934 282.044586,137.397186 
	C281.881439,136.155762 281.745911,134.909805 281.543701,133.674774 
	C281.439453,133.038147 281.216583,132.420959 281.047302,131.794983 
	C283.403900,131.720490 285.760529,131.645996 288.548370,132.054489 
	C289.972870,135.424088 290.966095,138.310699 291.959351,141.197296 
	C290.872375,141.292450 289.785370,141.387589 288.237549,141.203918 
	C287.175171,141.071503 286.573608,141.217896 285.972046,141.364273 
z"/>
<path fill="#F1F1F1" opacity="1.000000" stroke="none" 
	d="
M280.607788,131.640411 
	C281.216583,132.420959 281.439453,133.038147 281.543701,133.674774 
	C281.745911,134.909805 281.881439,136.155762 282.044586,137.397186 
	C280.776917,137.535934 279.381744,138.085449 278.264801,137.738678 
	C274.465607,136.559174 271.149200,136.360214 269.054382,140.870514 
	C267.294891,141.286865 265.538055,141.369705 263.366394,141.294998 
	C264.201904,139.143906 265.333618,137.060669 266.747589,135.190857 
	C267.579498,134.090805 268.859589,133.329712 269.947266,132.101105 
	C273.360352,131.685974 276.764282,131.585907 280.607788,131.640411 
z"/>
<path fill="#F4F4F4" opacity="1.000000" stroke="none" 
	d="
M292.341278,141.348206 
	C290.966095,138.310699 289.972870,135.424088 288.966461,132.204437 
	C291.390015,131.738663 293.825989,131.516159 296.263641,131.495163 
	C299.582886,131.466553 302.066040,133.464203 301.610840,136.460587 
	C301.328827,138.316940 298.543915,139.996445 296.582001,141.304672 
	C295.661713,141.918320 294.031616,141.467499 292.341278,141.348206 
z"/>
<path fill="#9F9F9F" opacity="1.000000" stroke="none" 
	d="
M286.123108,141.554779 
	C286.573608,141.217896 287.175171,141.071503 287.908325,141.157013 
	C287.451324,141.507706 286.862732,141.626495 286.123108,141.554779 
z"/>
</svg>