<?xml version="1.0" standalone="no"?>
<!DOCTYPE svg PUBLIC "-//W3C//DTD SVG 20010904//EN"
 "http://www.w3.org/TR/2001/REC-SVG-20010904/DTD/svg10.dtd">
<svg version="1.0" xmlns="http://www.w3.org/2000/svg"
 width="376.000000pt" height="376.000000pt" viewBox="0 0 376.000000 376.000000"
 preserveAspectRatio="xMidYMid meet">

<g transform="translate(0.000000,376.000000) scale(0.100000,-0.100000)"
fill="#000000" stroke="none">
<path d="M1593 3740 c-217 -39 -364 -86 -538 -171 -527 -257 -899 -736 -1021
-1313 -35 -164 -43 -406 -20 -596 97 -820 700 -1469 1516 -1631 95 -19 148
-23 305 -24 215 0 287 6 432 35 651 131 1202 626 1406 1265 70 219 91 375 84
620 -6 215 -32 368 -94 553 -212 635 -734 1099 -1404 1248 -99 22 -143 26
-339 29 -186 3 -243 0 -327 -15z m177 -1293 c15 -7 26 -23 28 -38 6 -53 2 -54
-428 -59 l-397 -5 -40 -28 c-104 -72 -120 -215 -35 -309 45 -50 85 -68 154
-68 71 0 103 -17 103 -55 0 -43 -33 -57 -115 -49 -125 12 -218 75 -269 183
-36 76 -36 184 0 255 47 96 135 162 234 176 27 4 205 8 395 9 259 0 351 -2
370 -12z m1198 6 c43 -10 53 -72 14 -89 -9 -4 -186 -9 -392 -11 -224 -2 -388
-8 -408 -14 -151 -49 -179 -270 -46 -363 34 -23 58 -30 125 -37 61 -6 87 -13
96 -25 40 -55 -25 -90 -138 -74 -112 16 -192 74 -240 175 -89 185 28 404 234
435 55 9 716 11 755 3z m-1440 -523 c115 -16 195 -73 243 -175 59 -123 28
-271 -75 -362 -87 -76 -98 -78 -539 -78 -373 0 -389 1 -403 19 -18 25 -18 37
0 62 14 18 33 19 413 24 378 5 400 6 433 25 91 54 127 182 78 275 -37 68 -91
101 -180 110 -40 4 -81 11 -90 15 -39 16 -29 80 14 88 37 7 40 7 106 -3z
m1299 -25 c61 -28 119 -85 152 -151 19 -38 25 -65 25 -124 1 -130 -65 -233
-183 -289 l-56 -26 -380 -3 c-419 -3 -430 -2 -430 53 0 53 13 55 423 55 404 0
411 1 465 56 46 46 61 83 61 149 -1 68 -17 105 -66 152 -42 40 -76 53 -141 53
-70 0 -102 17 -102 55 0 43 33 57 115 49 36 -3 88 -16 117 -29z"/>
</g>
</svg>
